<svg width="18" height="16" viewBox="0 0 18 16" fill="none" xmlns="http://www.w3.org/2000/svg">
<path fill-rule="evenodd" clip-rule="evenodd" d="M0 0H18V1.23125H0V0ZM0 2.4625H18V3.69375H0V2.4625ZM0 4.92188H18V6.15625H0V4.92188ZM0 7.38438H18V8.61563H0V7.38438ZM0 9.84688H18V11.0781H0V9.84688ZM0 12.3062H18V13.5375H0V12.3062ZM0 14.7688H18V16H0V14.7688Z" fill="#BD3D44"/>
<path fill-rule="evenodd" clip-rule="evenodd" d="M0 1.23126H18V2.46251H0V1.23126ZM0 3.69376H18V4.92189H0V3.69376ZM0 6.15314H18V7.38439H0V6.15314ZM0 8.61564H18V9.84689H0V8.61564ZM0 11.0781H18V12.3094H0V11.0781ZM0 13.5375H18V14.7688H0V13.5375Z" fill="white"/>
<path fill-rule="evenodd" clip-rule="evenodd" d="M0 0H11.9694V8.61563H0V0Z" fill="#192F5D"/>
<path fill-rule="evenodd" clip-rule="evenodd" d="M0.996674 0.368774L1.10742 0.709399H1.4581L1.17509 0.918774L1.28276 1.26252L0.996674 1.05002L0.713666 1.2594L0.821332 0.918774L0.535248 0.709399H0.892084L0.996674 0.368774ZM2.99311 0.368774L3.10078 0.709399H3.45454L3.16845 0.918774L3.27612 1.26252L2.99311 1.05002L2.70703 1.2594L2.81469 0.918774L2.53168 0.709399H2.88237L2.99311 0.368774ZM4.98647 0.368774L5.09721 0.709399H5.44482L5.16181 0.918774L5.26948 1.26252L4.98339 1.05002L4.70039 1.2594L4.80805 0.918774L4.52197 0.709399H4.87573L4.98647 0.368774ZM6.9829 0.368774L7.09057 0.709399H7.44433L7.15825 0.918774L7.26899 1.26252L6.9829 1.05002L6.69682 1.2594L6.80756 0.918774L6.52148 0.709399H6.87216L6.9829 0.368774ZM8.97626 0.368774L9.08701 0.709399H9.43769L9.15468 0.918774L9.26235 1.26252L8.97626 1.05002L8.69326 1.2594L8.80092 0.918774L8.51791 0.709399H8.8686L8.97626 0.368774ZM10.9727 0.368774L11.0804 0.709399H11.4341L11.148 0.918774L11.2588 1.26252L10.9727 1.05002L10.6866 1.2594L10.7974 0.918774L10.5113 0.709399H10.865L10.9727 0.368774ZM1.99643 1.23127L2.1041 1.5719H2.45786L2.17177 1.78127L2.27636 2.1219L1.99951 1.91252L1.71342 2.1219L1.81494 1.78127L1.53808 1.5719H1.88876L1.99643 1.23127ZM3.98979 1.23127L4.10053 1.5719H4.45121L4.16513 1.78127L4.27587 2.1219L3.98979 1.91252L3.70371 2.1219L3.81445 1.78127L3.52836 1.5719H3.88212L3.98979 1.23127ZM5.98623 1.23127L6.09389 1.5719H6.44765L6.16157 1.78127L6.26923 2.1219L5.98623 1.91252L5.70014 2.1219L5.80781 1.78127L5.5248 1.5719H5.87548L5.98623 1.23127ZM7.97958 1.23127L8.09033 1.5719H8.44101L8.15493 1.78127L8.26567 2.1219L7.97958 1.91252L7.69658 2.1219L7.80424 1.78127L7.51816 1.5719H7.87499L7.97958 1.23127ZM9.97602 1.23127L10.0837 1.5719H10.4374L10.1514 1.78127L10.259 2.1219L9.97602 1.91252L9.68994 2.1219L9.7976 1.78127L9.51459 1.5719H9.86528L9.97602 1.23127ZM0.996674 2.09065L1.10742 2.43752H1.4581L1.17509 2.6469L1.28276 2.98752L0.996674 2.77502L0.713666 2.98752L0.821332 2.64377L0.535248 2.4344H0.892084L0.996674 2.09065ZM2.99311 2.09065L3.10078 2.4344H3.45454L3.16845 2.64377L3.27612 2.9844L2.99311 2.7719L2.70703 2.9844L2.81469 2.64065L2.53168 2.43127H2.88237L2.99311 2.09065ZM4.98647 2.09065L5.09721 2.4344H5.44482L5.16181 2.64377L5.26948 2.9844L4.98339 2.7719L4.70039 2.9844L4.80805 2.64065L4.52197 2.43127H4.87573L4.98647 2.09065ZM6.9829 2.09065L7.09057 2.4344H7.44433L7.15825 2.64377L7.26899 2.9844L6.9829 2.7719L6.69682 2.9844L6.80756 2.64065L6.52148 2.43127H6.87216L6.9829 2.09065ZM8.97626 2.09065L9.08701 2.4344H9.43769L9.15468 2.64377L9.26235 2.9844L8.97626 2.7719L8.69326 2.9844L8.80092 2.64065L8.51791 2.43127H8.8686L8.97626 2.09065ZM10.9727 2.09065L11.0804 2.4344H11.4341L11.148 2.64377L11.2588 2.9844L10.9727 2.7719L10.6866 2.9844L10.7974 2.64065L10.5113 2.43127H10.865L10.9727 2.09065ZM1.99643 2.95315L2.1041 3.29377H2.45786L2.17177 3.50315L2.27944 3.8469L1.99643 3.6344L1.71035 3.84377L1.81801 3.50315L1.535 3.29377H1.88569L1.99643 2.95315ZM3.98979 2.95315L4.10053 3.29377H4.45121L4.16513 3.50315L4.27587 3.8469L3.98979 3.6344L3.70371 3.84377L3.81445 3.50315L3.52836 3.29377H3.88212L3.98979 2.95315ZM5.98623 2.95315L6.09389 3.29377H6.44765L6.16157 3.50315L6.26923 3.8469L5.98623 3.6344L5.70014 3.84377L5.80781 3.50315L5.5248 3.29377H5.87548L5.98623 2.95315ZM7.97958 2.95315L8.09033 3.29377H8.44101L8.158 3.50315L8.26567 3.8469L7.97958 3.6344L7.69658 3.84377L7.80424 3.50315L7.51816 3.29377H7.87499L7.97958 2.95315ZM9.97602 2.95315L10.0837 3.29377H10.4374L10.1514 3.50315L10.259 3.8469L9.97602 3.6344L9.68994 3.84377L9.7976 3.50315L9.51459 3.29377H9.86528L9.97602 2.95315ZM0.996674 3.81565L1.10742 4.15627H1.4581L1.17509 4.36565L1.28276 4.7094L0.996674 4.4969L0.713666 4.70627L0.821332 4.36565L0.535248 4.15627H0.892084L0.996674 3.81565ZM2.99311 3.81565L3.10078 4.15627H3.45454L3.16845 4.36565L3.27612 4.70627L2.99311 4.4969L2.70703 4.70627L2.81469 4.36565L2.53168 4.15627H2.88237L2.99311 3.81565ZM4.98647 3.81565L5.09721 4.15627H5.44482L5.16181 4.36565L5.26948 4.7094L4.98339 4.4969L4.70039 4.70627L4.80805 4.36565L4.52197 4.15627H4.87573L4.98647 3.81565ZM6.9829 3.81565L7.09057 4.15627H7.44433L7.15825 4.36565L7.26899 4.7094L6.9829 4.4969L6.69682 4.70627L6.80756 4.36565L6.52148 4.15627H6.87216L6.9829 3.81565ZM8.97626 3.81565L9.08701 4.15627H9.43769L9.15468 4.36565L9.26235 4.7094L8.97626 4.4969L8.69326 4.70627L8.80092 4.36565L8.51791 4.15627H8.8686L8.97626 3.81565ZM10.9727 3.81565L11.0804 4.15627H11.4341L11.148 4.36565L11.2588 4.7094L10.9727 4.4969L10.6866 4.70627L10.7974 4.36565L10.5113 4.15627H10.865L10.9727 3.81565ZM1.99643 4.67815L2.1041 5.01877H2.45786L2.17177 5.22815L2.27944 5.56877L1.99643 5.35627L1.71035 5.56877L1.81801 5.22502L1.535 5.01565H1.88569L1.99643 4.67815ZM3.98979 4.67815L4.10053 5.01877H4.45121L4.16513 5.22815L4.27587 5.56877L3.98979 5.35627L3.70371 5.56877L3.81445 5.22502L3.52836 5.01565H3.88212L3.98979 4.67815ZM5.98623 4.67815L6.09389 5.01877H6.44765L6.16157 5.22815L6.26923 5.56877L5.98623 5.35627L5.70014 5.56877L5.80781 5.22502L5.5248 5.01565H5.87548L5.98623 4.67815ZM7.97958 4.67815L8.09033 5.01877H8.44101L8.158 5.22815L8.26567 5.56877L7.97958 5.35627L7.69658 5.56877L7.80424 5.22502L7.51816 5.01565H7.87499L7.97958 4.67815ZM9.97602 4.67815L10.0837 5.01877H10.4374L10.1514 5.22815L10.259 5.56877L9.97602 5.35627L9.68994 5.56877L9.7976 5.22502L9.51459 5.01565H9.86528L9.97602 4.67815ZM0.996674 5.53752L1.10742 5.88127H1.4581L1.17509 6.09065L1.28276 6.42815L0.996674 6.21877L0.713666 6.42815L0.821332 6.08752L0.535248 5.87815H0.892084L0.996674 5.53752ZM2.99311 5.53752L3.10078 5.88127H3.45454L3.16845 6.09065L3.27919 6.42815L2.99311 6.21877L2.70703 6.42815L2.81777 6.08752L2.53168 5.87815H2.88237L2.99311 5.53752ZM4.98647 5.53752L5.09721 5.88127H5.44482L5.16181 6.09065L5.26948 6.42815L4.98339 6.21877L4.70039 6.42815L4.80805 6.08752L4.52197 5.87815H4.87573L4.98647 5.53752ZM6.9829 5.53752L7.09057 5.88127H7.44433L7.15825 6.09065L7.26899 6.42815L6.9829 6.21877L6.69682 6.42815L6.80756 6.08752L6.52148 5.87815H6.87216L6.9829 5.53752ZM8.97626 5.53752L9.08701 5.88127H9.43769L9.15468 6.09065L9.26235 6.42815L8.97626 6.21877L8.69326 6.42815L8.80092 6.08752L8.51791 5.87815H8.8686L8.97626 5.53752ZM10.9727 5.53752L11.0804 5.88127H11.4341L11.148 6.09065L11.2588 6.42815L10.9727 6.21877L10.6866 6.42815L10.7974 6.08752L10.5113 5.87815H10.865L10.9727 5.53752ZM1.99643 6.40002L2.1041 6.74065H2.45786L2.17177 6.95002L2.27944 7.29377L1.99643 7.08127L1.71035 7.29065L1.81801 6.95002L1.535 6.74065H1.88569L1.99643 6.40002ZM3.98979 6.40002L4.10053 6.74065H4.45121L4.16513 6.95002L4.27587 7.29377L3.98979 7.08127L3.70371 7.29065L3.81445 6.95002L3.52836 6.74065H3.88212L3.98979 6.40002ZM5.98623 6.40002L6.09389 6.74065H6.44765L6.16157 6.95002L6.26923 7.29377L5.98623 7.08127L5.70014 7.29065L5.80781 6.95002L5.5248 6.74065H5.87548L5.98623 6.40002ZM7.97958 6.40002L8.09033 6.74065H8.44101L8.158 6.95002L8.26567 7.29377L7.97958 7.08127L7.69658 7.29065L7.80424 6.95002L7.51816 6.74065H7.87499L7.97958 6.40002ZM9.97602 6.40002L10.0837 6.74065H10.4374L10.1514 6.95002L10.259 7.29377L9.97602 7.08127L9.68994 7.29065L9.7976 6.95002L9.51459 6.74065H9.86528L9.97602 6.40002ZM0.996674 7.26252L1.10742 7.60315H1.4581L1.17509 7.81252L1.28276 8.15315L0.996674 7.94377L0.713666 8.15315L0.821332 7.8094L0.535248 7.60002H0.892084L0.996674 7.26252ZM2.99311 7.26252L3.10078 7.60315H3.45454L3.16845 7.81252L3.27919 8.15315L2.99311 7.94377L2.70703 8.15315L2.81777 7.8094L2.53168 7.60002H2.88237L2.99311 7.26252ZM4.98647 7.26252L5.09721 7.60315H5.44482L5.16796 7.81252L5.27563 8.15315L4.98954 7.94377L4.70654 8.15315L4.8142 7.8094L4.52812 7.60002H4.88188L4.98647 7.26252ZM6.9829 7.26252L7.09057 7.60315H7.44433L7.15825 7.81252L7.26899 8.15315L6.9829 7.94377L6.69682 8.15315L6.80756 7.8094L6.52148 7.60002H6.87216L6.9829 7.26252ZM8.97626 7.26252L9.08701 7.60315H9.43769L9.15468 7.81252L9.26235 8.15315L8.97626 7.94377L8.69326 8.15315L8.80092 7.8094L8.51791 7.60002H8.8686L8.97626 7.26252ZM10.9727 7.26252L11.0804 7.60315H11.4341L11.148 7.81252L11.2588 8.15315L10.9727 7.94377L10.6866 8.15315L10.7974 7.8094L10.5113 7.60002H10.865L10.9727 7.26252Z" fill="white"/>
</svg>
